<svg width="20" height="20" viewBox="0 0 20 20" fill="none" xmlns="http://www.w3.org/2000/svg">
<path d="M15.4482 18H4.55181C3.14248 18 2 16.8575 2 15.4482V4.55182C2 3.14249 3.14248 2 4.55181 2H15.4482C16.8575 2 18 3.14249 18 4.55182V15.4482C18 16.8575 16.8575 18 15.4482 18Z" fill="black"/>
<path d="M4.70117 8.08057V11.9666L7.47579 10.1609L4.70117 8.08057Z" fill="white"/>
<path d="M15.2967 11.9666V8.08057L12.5195 10.1609L15.2967 11.9666Z" fill="white"/>
<path d="M9.9991 12.0532L8.15455 10.6672L4.70117 12.9133V13.7087H15.2971V12.9133L11.8437 10.6672L9.9991 12.0532Z" fill="white"/>
<path d="M4.70117 7.0844L9.9991 11.0585L15.2971 7.0844V6.28906H4.70117V7.0844Z" fill="white"/>
</svg>
