<svg width="20" height="20" viewBox="0 0 20 20" fill="none" xmlns="http://www.w3.org/2000/svg">
<path d="M10.1123 17.872C14.3984 17.872 17.873 14.3974 17.873 10.1113C17.873 5.82518 14.3984 2.35059 10.1123 2.35059C5.82615 2.35059 2.35156 5.82518 2.35156 10.1113C2.35156 14.3974 5.82615 17.872 10.1123 17.872Z" fill="white"/>
<path d="M10 1C5.02742 1 1 5.03005 1 10C1 14.97 5.02742 19 10 19C14.9726 19 19 14.9726 19 10C19 5.02742 14.9726 1 10 1ZM14.4212 7.16715L12.9431 14.1272C12.8328 14.6208 12.5414 14.7415 12.1292 14.5079L9.87923 12.8486L8.79492 13.8935C8.67415 14.0143 8.57439 14.1141 8.34072 14.1141L8.50088 11.8247L12.6701 8.05718C12.8512 7.89703 12.6307 7.80776 12.3891 7.96529L7.23804 11.213L5.01692 10.5198C4.53384 10.3676 4.52334 10.0368 5.11931 9.80572L13.7964 6.45829C14.1981 6.31389 14.5499 6.55543 14.4212 7.16715Z" fill="black"/>
</svg>
