<svg width="20" height="20" viewBox="0 0 20 20" fill="none" xmlns="http://www.w3.org/2000/svg">
<path fill-rule="evenodd" clip-rule="evenodd" d="M16.7807 3.85757L17.2121 4.30443C17.802 4.89825 18.0732 5.73949 17.9386 6.55698C17.4932 9.23312 16.0639 11.3301 13.9301 13.4619C11.7943 15.5957 9.15996 17.5624 6.49173 18.0018C6.35515 18.0256 6.2166 18.0375 6.0721 18.0375C5.38723 18.0375 4.72018 17.7623 4.2372 17.2774L3.41769 16.4276L8.11427 12.0097L8.67056 12.566C9.5265 12.1754 10.305 11.6336 10.9686 10.9667C11.634 10.3029 12.1738 9.52439 12.562 8.66858L12.1278 8.23434L16.7807 3.85757ZM16.0397 3.09004L11.3731 7.47966L10.9033 7.00985C10.6005 6.707 10.4322 6.3032 10.4322 5.87367C10.4322 5.66291 10.4738 5.45422 10.5546 5.25958C10.6355 5.06493 10.754 4.88819 10.9033 4.73948L13.1717 2.4711C13.4745 2.16825 13.8783 2 14.3079 2C14.5186 1.99995 14.7273 2.04154 14.922 2.12239C15.1166 2.20323 15.2934 2.32174 15.4421 2.4711L16.0397 3.09004ZM7.35958 11.255L7.01183 10.9073C6.86312 10.7579 6.68637 10.6394 6.49173 10.5586C6.29709 10.4777 6.0884 10.4361 5.87763 10.4362C5.44811 10.4362 5.04431 10.6044 4.74146 10.9073L2.4711 13.1737C2.32156 13.3227 2.20295 13.4997 2.1221 13.6947C2.04125 13.8897 1.99975 14.0988 2 14.3099C2 14.7394 2.16825 15.1432 2.4711 15.446L2.67711 15.6596L7.35958 11.255Z" fill="black"/>
</svg>
