<svg width="20" height="20" viewBox="0 0 20 20" fill="none" xmlns="http://www.w3.org/2000/svg">
<path d="M10.0937 1C6.7336 1 4 3.7336 4 7.09368C4 8.01003 4.19849 8.89069 4.58979 9.71181C4.59766 9.72937 4.60593 9.74662 4.61476 9.76387L9.21885 18.6783C9.38788 19.0055 9.72538 19.2111 10.0936 19.2111C10.4619 19.2111 10.7994 19.0056 10.9684 18.6783L15.5712 9.76631C15.5791 9.75096 15.5866 9.73544 15.5936 9.71976C15.9875 8.89628 16.1872 8.01294 16.1872 7.09368C16.1874 3.7336 13.4538 1 10.0937 1ZM10.0937 10.2832C8.33495 10.2832 6.90412 8.85241 6.90412 7.09368C6.90412 5.33503 8.33495 3.9042 10.0937 3.9042C11.8524 3.9042 13.2832 5.33503 13.2832 7.09368C13.2832 8.85241 11.8524 10.2832 10.0937 10.2832Z" fill="black"/>
</svg>
