<svg width="60" height="60" viewBox="0 0 60 60" fill="none" xmlns="http://www.w3.org/2000/svg">
<g clip-path="url(#clip0_132_1198)">
<path d="M33.023 7.84932C41.4115 7.84932 49.7979 7.84932 58.1864 7.84932C59.9221 7.84932 59.9966 7.92583 59.9986 9.6736C60.0006 21.3824 60.0006 33.0913 59.9986 44.8021C59.9986 46.5277 59.8959 46.6264 58.1763 46.6304C57.236 46.6325 56.2977 46.6284 55.3574 46.6324C53.9519 46.6385 53.9298 46.6586 53.9237 48.0198C53.9197 48.8917 53.9237 49.7635 53.9237 50.6374C53.9217 52.6751 53.8391 52.7617 51.8518 52.7637C50.5107 52.7657 49.1677 52.7637 47.8267 52.7637C32.5941 52.7637 17.3616 52.7637 2.13107 52.7637C1.72836 52.7637 1.32564 52.7657 0.922934 52.7516C0.208122 52.7255 -0.208684 52.3912 -0.196602 51.6301C-0.192575 51.3945 -0.202637 51.1609 -0.202637 50.9253C-0.202637 39.2165 -0.202637 27.5076 -0.202637 15.7968C-0.202637 14.045 -0.0717592 13.9162 1.69413 13.9121C2.76736 13.9101 3.8426 13.89 4.91381 13.9182C5.59439 13.9363 5.89441 13.6745 5.87629 12.9758C5.8481 11.8704 5.86219 10.7609 5.87427 9.65548C5.89038 8.04665 6.08368 7.85133 7.6603 7.85133C16.1132 7.84731 24.5681 7.84932 33.023 7.84932ZM26.775 50.8126C26.775 50.8106 26.775 50.8065 26.775 50.8045C34.7607 50.8045 42.7485 50.8025 50.7342 50.8065C52.0008 50.8065 52.0048 50.8227 52.0048 49.532C52.0068 38.8279 52.0048 28.1239 52.0048 17.4197C52.0048 15.9277 52.0008 15.9196 50.4785 15.9196C34.7406 15.9176 19.0027 15.9176 3.26471 15.9196C1.69614 15.9196 1.63574 15.98 1.63574 17.5748C1.63373 24.1188 1.63372 30.6609 1.63372 37.205C1.63372 41.3328 1.63775 45.4606 1.63171 49.5863C1.6297 50.3354 1.71427 50.8388 2.71702 50.8347C10.735 50.7965 18.755 50.8126 26.775 50.8126ZM33.0029 9.64944C25.4903 9.64944 17.9778 9.64541 10.4632 9.65145C7.35222 9.65346 7.82138 9.38969 7.78916 12.3416C7.77306 13.9081 7.78715 13.9081 9.41008 13.9081C23.5633 13.9081 37.7186 13.9081 51.8719 13.9081C53.7344 13.9081 53.9197 14.0933 53.9197 15.9962C53.9217 24.6826 53.9096 33.3692 53.9277 42.0577C53.9338 44.8968 53.4666 44.6511 56.5796 44.6572C58.0616 44.6592 58.1562 44.5605 58.1562 43.0383C58.1582 32.4731 58.1582 21.908 58.1562 11.3428C58.1562 9.72595 58.0777 9.64944 56.4467 9.64944C48.6341 9.64944 40.8195 9.64944 33.0029 9.64944Z" fill="#00BBF0"/>
<path d="M47.7 27.1754C47.7 29.1548 47.6839 31.1341 47.708 33.1134C47.7181 33.9289 47.3778 34.2531 46.5643 34.2491C43.3104 34.229 40.0565 34.229 36.8026 34.2491C35.9871 34.2551 35.6207 33.9108 35.6468 33.1114C35.6529 32.9101 35.6488 32.7087 35.6428 32.5074C35.6227 31.9395 35.7193 31.3314 35.5482 30.8119C35.3206 30.1132 34.5253 30.5381 34.044 30.2784C33.6917 30.0891 33.3192 29.928 32.995 29.6964C32.5137 29.3521 32.0385 29.0722 31.4184 29.2776C31.219 29.3441 31.0096 29.328 30.8465 29.185C30.5243 28.9051 30.0653 28.6776 30.0854 28.1903C30.1055 27.705 30.5908 27.6204 30.9492 27.4593C31.9499 27.0123 32.85 27.3204 33.7078 27.858C33.9051 27.9829 34.0682 28.1621 34.2675 28.2849C34.6159 28.5024 35.0206 28.7239 35.377 28.3957C35.8301 27.9769 35.6327 27.3888 35.6086 26.8673C35.5884 26.4344 35.2502 26.3499 34.8877 26.3378C34.189 26.3156 33.5829 26.0357 33.0373 25.629C32.5822 25.2887 32.0989 25.1115 31.5351 25.2243C31.2472 25.2827 30.9935 25.2323 30.7942 25.0269C30.4962 24.7209 29.9746 24.4873 30.021 24.0343C30.0753 23.4946 30.6633 23.3799 31.1022 23.2731C32.1332 23.0194 33.0977 23.1765 33.9212 23.9155C34.3038 24.2598 34.7347 24.586 35.2723 24.3303C35.818 24.0705 35.6368 23.5128 35.6388 23.0698C35.6509 19.7816 35.4153 20.1541 38.5564 20.1441C41.172 20.134 43.7896 20.1662 46.4053 20.132C47.3617 20.1199 47.7322 20.4985 47.7141 21.4428C47.6778 23.3517 47.702 25.2645 47.7 27.1754ZM45.928 27.2499C45.928 25.8747 45.924 24.4994 45.9301 23.1241C45.9321 22.5503 45.779 22.1234 45.1005 22.1234C42.8191 22.1234 40.5398 22.1194 38.2584 22.1254C37.906 22.1254 37.5416 22.206 37.5315 22.6429C37.5194 23.0899 37.8819 23.1644 38.2383 23.1704C38.9027 23.1825 39.5249 23.3758 39.9981 23.8148C40.7029 24.4712 41.3794 24.5356 42.1627 23.9859C42.6862 23.6175 43.1413 23.8611 43.4735 24.294C43.8339 24.7612 43.6205 25.19 43.2279 25.5243C42.9762 25.7377 42.6943 25.9391 42.3902 26.0659C41.1942 26.5693 40.1048 26.3237 39.088 25.5605C38.7054 25.2746 38.2463 25.0471 37.7812 25.3209C37.2818 25.6149 37.4631 26.1545 37.4691 26.6056C37.4792 27.2237 37.9745 27.2096 38.4034 27.2801C39.0075 27.3808 39.5914 27.5681 40.0545 27.9748C40.719 28.5588 41.3452 28.6957 42.1265 28.15C42.6198 27.8057 43.1896 27.9104 43.5239 28.4641C43.848 29.0018 43.546 29.4206 43.1292 29.7669C42.1889 30.5522 40.5398 30.6166 39.4363 29.9441C38.9229 29.63 38.4638 28.893 37.7752 29.3441C37.153 29.7508 37.5295 30.524 37.4469 31.1321C37.4429 31.1643 37.449 31.1986 37.4469 31.2328C37.4127 31.9416 37.7188 32.2698 38.4598 32.2637C40.6062 32.2416 42.7527 32.2355 44.8991 32.2677C45.7025 32.2798 45.9582 31.9254 45.9401 31.1724C45.9079 29.8676 45.9301 28.5588 45.928 27.2499Z" fill="#00BBF0"/>
<path d="M24.3511 33.4034C24.3511 29.3804 24.3592 25.3572 24.3451 21.3321C24.343 20.6254 24.3732 20.1038 25.3317 20.1159C26.268 20.128 26.3365 20.6314 26.3365 21.3442C26.3264 29.3904 26.3324 37.4386 26.3284 45.4848C26.3284 46.5157 25.6559 46.9526 24.6733 46.6103C24.2122 46.4493 24.3491 46.0868 24.3491 45.7727C24.3451 41.6489 24.3471 37.5252 24.3471 33.4014C24.3471 33.4034 24.3491 33.4034 24.3511 33.4034Z" fill="#00BBF0"/>
<path d="M39.036 39.4299C36.5211 39.4299 34.0082 39.4219 31.4933 39.4359C30.8489 39.44 30.3959 39.3675 30.4019 38.5339C30.408 37.7204 30.7925 37.4848 31.5174 37.4848C36.5795 37.4909 41.6416 37.4949 46.7037 37.4788C47.4326 37.4768 47.7064 37.7506 47.7185 38.4876C47.7306 39.2749 47.3722 39.444 46.6775 39.438C44.1303 39.4158 41.5832 39.4299 39.036 39.4299Z" fill="#00BBF0"/>
<path d="M39.1665 44.4719C36.6214 44.4719 34.0782 44.4679 31.5331 44.4759C30.9029 44.4779 30.4196 44.3994 30.4075 43.5759C30.3934 42.7503 30.8586 42.6637 31.5009 42.6637C36.5549 42.6718 41.611 42.6738 46.665 42.6597C47.3476 42.6577 47.7241 42.8188 47.7181 43.6081C47.71 44.3712 47.3174 44.4799 46.6992 44.4759C44.1883 44.4638 41.6774 44.4719 39.1665 44.4719Z" fill="#00BBF0"/>
<path d="M13.1921 34.4384C15.1653 34.4384 17.1407 34.4585 19.1139 34.4283C19.8348 34.4182 20.1347 34.6538 20.1307 35.4069C20.1267 36.1297 19.8951 36.4197 19.1441 36.4157C15.0969 36.3915 11.0476 36.3955 6.99838 36.4137C6.25739 36.4177 5.86273 36.1881 5.87683 35.3867C5.88891 34.6296 6.28558 34.4263 6.97019 34.4323C9.04214 34.4504 11.1161 34.4384 13.1921 34.4384Z" fill="#00BBF0"/>
<path d="M16.0692 26.1062C14.998 26.1062 13.9268 26.0821 12.8556 26.1143C12.1005 26.1364 12.0864 25.6673 12.0864 25.1256C12.0884 24.6142 12.1267 24.1994 12.8173 24.2054C14.994 24.2256 17.1686 24.2276 19.3453 24.2034C20.1023 24.1954 20.1023 24.6504 20.1164 25.1901C20.1325 25.7901 19.9835 26.1405 19.2809 26.1163C18.2137 26.078 17.1404 26.1062 16.0692 26.1062Z" fill="#00BBF0"/>
<path d="M9.96172 39.6192C10.9645 39.6192 11.9712 39.6534 12.972 39.6071C13.6103 39.5769 13.8841 39.7581 13.8741 40.4387C13.864 41.0971 13.6787 41.4193 12.9559 41.4092C10.8819 41.379 8.80795 41.3831 6.73399 41.4072C5.97086 41.4153 5.86816 40.9884 5.86816 40.3763C5.86816 39.746 6.17422 39.5829 6.75211 39.6011C7.82131 39.6333 8.89252 39.6111 9.96373 39.6111C9.96172 39.6131 9.96172 39.6172 9.96172 39.6192Z" fill="#00BBF0"/>
<path d="M9.81687 31.2066C8.8101 31.2066 7.80332 31.1925 6.79654 31.2126C6.18442 31.2247 5.85017 31.0254 5.86628 30.3488C5.88037 29.7548 6.0475 29.3762 6.71801 29.3783C8.83225 29.3843 10.9465 29.3883 13.0587 29.3742C13.7675 29.3702 13.8601 29.781 13.8641 30.3569C13.8681 30.9508 13.6386 31.2187 13.0345 31.2106C11.9613 31.1945 10.8881 31.2066 9.81285 31.2066C9.81687 31.2046 9.81687 31.2046 9.81687 31.2066Z" fill="#00BBF0"/>
<path d="M7.85388 26.1082C7.51963 26.1082 7.18334 26.0881 6.85111 26.1123C6.18462 26.1586 5.87053 25.9049 5.86247 25.1981C5.85442 24.4632 6.13831 24.1591 6.87527 24.2034C7.50954 24.2417 8.14786 24.2336 8.78213 24.2054C9.44861 24.1752 9.85936 24.3182 9.86942 25.1216C9.87949 25.9532 9.49291 26.1787 8.75796 26.1143C8.45794 26.0861 8.15591 26.1082 7.85388 26.1082Z" fill="#00BBF0"/>
<path d="M18.0827 41.4012C17.7484 41.4012 17.4122 41.375 17.0799 41.4073C16.2906 41.4818 16.1416 41.0609 16.1315 40.3743C16.1215 39.6172 16.5342 39.5971 17.096 39.6152C17.8632 39.6414 18.6344 39.6434 19.4015 39.6011C19.9331 39.5709 20.1546 39.7763 20.1083 40.2877C20.066 40.7448 20.3036 41.375 19.4861 41.3932C19.019 41.4032 18.5498 41.3952 18.0827 41.3952C18.0827 41.3972 18.0827 41.3992 18.0827 41.4012Z" fill="#00BBF0"/>
<path d="M18.0748 31.2066C17.7405 31.2066 17.4043 31.1865 17.072 31.2106C16.3814 31.2589 16.1216 30.9629 16.1337 30.2683C16.1438 29.6259 16.3834 29.3501 17.0257 29.3682C17.7607 29.3904 18.4976 29.3904 19.2326 29.3682C19.8749 29.3481 20.1165 29.6239 20.1246 30.2663C20.1326 30.9589 19.8688 31.2549 19.1802 31.2086C18.8117 31.1865 18.4432 31.2066 18.0748 31.2066Z" fill="#00BBF0"/>
</g>
<defs>
<clipPath id="clip0_132_1198">
<rect width="60" height="60" fill="white"/>
</clipPath>
</defs>
</svg>
