<svg width="60" height="60" viewBox="0 0 60 60" fill="none" xmlns="http://www.w3.org/2000/svg">
<path d="M12.6411 16.9669C12.6429 14.8581 12.6338 12.7494 12.6466 10.6406C12.6521 9.63206 12.8868 9.40652 13.8843 9.35517C13.9449 9.3515 14.0072 9.3515 14.0677 9.3515C16.3984 9.32583 16.1618 9.6559 16.1746 7.14372C16.1783 6.44141 16.1966 5.73727 16.171 5.03496C16.1435 4.29231 16.2957 3.80271 17.2107 3.81187C18.0872 3.81921 18.2027 4.29597 18.1899 4.99462C18.1679 6.15535 18.2009 7.31792 18.1807 8.47866C18.1697 9.09845 18.4099 9.36617 19.0462 9.35334C19.6569 9.34234 19.8384 9.04161 19.8329 8.48966C19.8201 7.26658 19.8476 6.04533 19.8274 4.82225C19.8164 4.12911 20.1006 3.82654 20.8048 3.81921C21.5345 3.81187 21.8738 4.0851 21.8573 4.84058C21.8298 6.03249 21.8719 7.2244 21.8463 8.41631C21.8316 9.07095 22.07 9.38451 22.7503 9.35334C23.3609 9.32583 23.9734 9.3185 24.5822 9.35517C25.3211 9.40102 25.5155 9.02694 25.5504 8.3613C25.5889 7.60765 25.0919 7.67366 24.6445 7.6975C23.8487 7.74151 23.4709 7.47195 23.4819 6.60278C23.4929 5.68042 24.0467 5.68042 24.7013 5.66942C25.1011 5.66208 25.5797 5.83445 25.8419 5.32652C26.26 4.52152 25.9868 4.07776 25.0828 4.02458C24.419 3.98608 23.5168 4.33998 23.4911 3.1059C23.4746 2.33391 23.7442 1.99101 24.5492 2.00018C26.8706 2.02768 29.1939 2.00935 31.5172 2.00751C32.832 2.00751 34.1449 2.02585 35.4597 2.00201C36.1712 1.98918 36.5361 2.22206 36.5361 2.99955C36.5361 3.74037 36.2537 4.08876 35.5056 4.03192C35.324 4.01725 35.137 4.01725 34.9554 4.03559C34.563 4.07409 34.0001 3.89439 34.0423 4.59487C34.0753 5.14681 34.1229 5.74277 34.9408 5.67859C35.1828 5.66025 35.4304 5.69142 35.6743 5.68226C36.3894 5.65292 36.5324 6.07467 36.5306 6.68163C36.5288 7.29042 36.3729 7.67916 35.6669 7.69567C35.1168 7.7085 34.3485 7.44812 34.4823 8.53367C34.552 9.09845 34.7556 9.35884 35.3332 9.3515C38.7751 9.30566 38.0929 9.80443 38.1681 6.69079C38.1809 6.17186 38.1864 5.65108 38.1663 5.13214C38.1388 4.39133 38.2029 3.80637 39.2041 3.81371C40.2365 3.82288 40.1998 4.47201 40.1943 5.17615C40.1852 6.27638 40.209 7.3766 40.1888 8.47683C40.1778 9.09479 40.4217 9.36251 41.0544 9.35517C41.6668 9.34784 41.8447 9.04528 41.8392 8.49333C41.8263 7.27025 41.8538 6.049 41.8337 4.82591C41.8227 4.14194 42.0776 3.82288 42.7982 3.81737C43.5317 3.81187 43.8673 4.0851 43.8526 4.83875C43.8288 5.99949 43.8746 7.16206 43.8398 8.32279C43.8178 9.05811 44.0726 9.43035 44.841 9.3515C44.8703 9.34784 44.9015 9.3515 44.9326 9.3515C47.6025 9.31116 47.3806 9.33317 47.3806 11.893C47.3806 15.5898 47.4082 19.2884 47.3623 22.9852C47.3495 23.9772 47.7089 24.4558 48.6496 24.7712C50.4429 25.3745 52.1868 26.1245 53.9563 26.7956C54.6403 27.056 54.8622 27.5346 54.8017 28.2314C54.2516 34.5926 52.7351 40.6933 49.8763 46.4273C48.6752 48.8368 47.2578 51.1179 45.6845 53.3037C45.072 54.1564 45.1307 54.2903 46.0512 54.8202C47.5824 55.704 48.9081 55.2089 50.2394 54.3453C52.0566 53.1662 54.0077 52.9975 56.0192 53.7823C56.441 53.9473 57.1745 53.9969 56.9288 54.7689C56.6775 55.561 55.9642 55.8452 55.2418 55.4602C53.8426 54.7157 52.5902 55.0421 51.3891 55.9094C49.9588 56.9418 48.3837 57.3507 46.627 57.0371C45.6991 56.8721 44.8996 56.443 44.1442 55.9168C42.5268 54.7909 41.2909 54.7615 39.6607 55.8379C36.9358 57.6368 34.7721 57.6093 32.027 55.7425C30.7086 54.8459 29.326 54.8422 28.0094 55.7352C25.213 57.6294 23.1519 57.6459 20.3023 55.7957C18.7235 54.7707 17.4674 54.8019 15.8959 55.9113C13.591 57.5378 11.1521 57.6074 8.80864 56.0084C7.43519 55.0696 6.09842 54.6845 4.5471 55.5738C3.77511 56.0158 3.42121 55.286 3.13331 54.8037C2.76107 54.1802 3.4102 54.028 3.78978 53.8667C5.84354 52.9957 7.85511 53.1093 9.742 54.3196C11.1063 55.1943 12.4504 55.7205 14.0109 54.8019C14.8892 54.2848 14.9534 54.1509 14.3703 53.3459C10.2151 47.6229 7.45536 41.2948 6.07091 34.3579C5.66933 32.3463 5.5153 30.3072 5.24391 28.2809C5.14856 27.5695 5.38878 27.0469 6.12409 26.7736C7.92846 26.1043 9.70532 25.3617 11.5207 24.7254C12.3459 24.4357 12.6778 23.9809 12.6594 23.1117C12.6118 21.0616 12.6411 19.0133 12.6411 16.9669ZM31.0203 37.7337C31.0203 41.3993 31.0331 45.0667 31.0093 48.7323C31.0038 49.4896 31.2238 49.849 32.0472 49.8435C36.294 49.8197 40.5409 49.827 44.7859 49.838C45.4699 49.8398 45.8898 49.5666 46.2529 48.9707C48.9338 44.5734 50.784 39.8516 51.9264 34.8346C52.0878 34.1231 51.8457 33.8371 51.2461 33.6024C49.1153 32.7644 46.9937 31.8988 44.8685 31.0462C40.6454 29.3518 36.4242 27.652 32.1957 25.9723C31.1138 25.5432 31.0203 25.6312 31.0203 26.8286C31.0166 30.4631 31.0203 34.0993 31.0203 37.7337ZM28.9977 37.7135C28.9977 37.1323 28.9977 36.5528 28.9977 35.9715C28.9977 32.8854 29.0014 29.7993 28.9959 26.7131C28.9941 25.6587 28.8822 25.5817 27.8847 25.9448C27.2539 26.174 26.6377 26.4436 26.0143 26.693C20.2326 29.0126 14.451 31.3322 8.66561 33.6445C8.1265 33.8591 7.93946 34.1433 8.07699 34.7613C9.19739 39.7508 11.0384 44.4432 13.6716 48.8331C14.1062 49.5575 14.6068 49.849 15.4338 49.8453C19.5578 49.8197 23.6836 49.8362 27.8077 49.8307C28.9189 49.8288 28.9941 49.75 28.9959 48.6186C28.9996 44.9842 28.9959 41.3479 28.9977 37.7135ZM26.6616 18.8831C26.4599 18.7749 26.4067 18.7218 26.3554 18.7236C25.532 18.7676 25.2918 18.3312 25.345 17.5794C25.3927 16.9064 25.7649 16.6955 26.3755 16.6973C27.1677 16.6992 27.3841 17.1759 27.3144 17.8416C27.2447 18.5127 27.4501 18.6997 28.1396 18.5677C28.7813 18.443 29.0326 18.1496 29.0069 17.5225C28.9776 16.8019 29.4525 16.6845 30.0374 16.69C30.5931 16.6937 31.0588 16.8257 31.0038 17.4877C30.9268 18.4137 31.5356 18.5714 32.2085 18.6026C33.0484 18.6411 32.645 17.9644 32.6816 17.6014C32.7477 16.9431 33.0759 16.6937 33.6994 16.6973C34.3375 16.701 34.6089 16.9944 34.6822 17.6362C34.7867 18.5714 34.1724 18.7181 33.4536 18.8538C35.379 19.6606 37.2787 20.3868 39.1748 21.1185C39.6094 21.2853 39.9138 21.2267 40.1558 20.7737C40.4676 20.1924 41.0397 20.3171 41.544 20.4107C42.0152 20.4969 42.0391 20.9186 42.0079 21.2872C41.9492 21.9913 42.2848 22.3507 42.9247 22.5524C43.4767 22.7248 44.0048 22.9779 44.5494 23.1759C44.819 23.2731 45.105 23.5206 45.3892 23.2217C45.5231 23.0787 45.5048 22.8752 45.4387 22.6991C45.3159 22.3764 45.0188 22.3654 44.7456 22.3801C44.0341 22.4186 43.6711 22.16 43.6711 21.3844C43.6729 20.6436 43.9553 20.297 44.7016 20.3465C45.2921 20.385 45.5084 20.086 45.5103 19.5139C45.5121 18.9216 45.2554 18.6704 44.6796 18.7052C44.069 18.7419 43.6821 18.5457 43.6784 17.8416C43.6747 17.1631 43.8581 16.6845 44.6374 16.7028C45.2517 16.7175 45.5121 16.4571 45.5121 15.8263C45.5121 15.1534 45.1582 14.9902 44.5861 15.0012C43.9314 15.0158 43.6711 14.6803 43.6729 14.0311C43.6747 13.3692 43.8764 12.9602 44.6117 12.9969C45.4553 13.0391 45.5854 12.5128 45.4736 11.8582C45.3599 11.198 44.797 11.3484 44.3679 11.3484C38.9309 11.3392 33.4921 11.3411 28.0552 11.3411C23.8707 11.3411 19.6844 11.3429 15.4998 11.3411C14.9717 11.3411 14.517 11.3833 14.5115 12.0966C14.506 12.7072 14.7425 13.0244 15.3696 12.9951C16.0775 12.9602 16.3378 13.3086 16.3452 13.9963C16.3525 14.6949 16.0628 15.0305 15.3733 15.0048C14.7535 14.981 14.4968 15.256 14.506 15.8832C14.5151 16.4755 14.7792 16.7138 15.3458 16.6992C16.105 16.6808 16.3433 17.1081 16.3415 17.8086C16.3397 18.4889 16.0096 18.7438 15.3733 18.7071C14.8269 18.6741 14.5151 18.8629 14.5078 19.4809C14.5005 20.108 14.7517 20.3942 15.3751 20.352C16.1673 20.2988 16.3433 20.7499 16.347 21.443C16.3507 22.2645 15.8813 22.4039 15.2193 22.3819C14.9406 22.3727 14.6527 22.4112 14.5683 22.7541C14.5243 22.9357 14.5133 23.1301 14.671 23.2639C14.9021 23.4638 15.1349 23.3098 15.3568 23.2254C15.9564 22.9962 16.5414 22.7285 17.1502 22.5323C17.7626 22.3361 18.0579 21.9822 18.0139 21.3239C17.9863 20.9223 18.0084 20.4748 18.5346 20.396C19.0077 20.3263 19.5707 20.2034 19.8476 20.7481C20.1373 21.3165 20.5224 21.256 20.99 21.0745C22.831 20.3557 24.6793 19.6459 26.6616 18.8831ZM52.7901 29.1703C52.9294 28.4496 52.3262 28.2424 51.7412 28.0151C45.5909 25.6349 39.4425 23.2492 33.2886 20.8783C32.7788 20.6821 32.2342 20.5702 31.7024 20.4363C31.2899 20.3337 31.0405 20.5005 31.035 20.9369C31.024 21.6704 31.0313 22.4021 31.0331 23.1356C31.035 23.5353 31.2715 23.6985 31.6254 23.836C34.7024 25.0224 37.772 26.2235 40.8435 27.4283C44.3972 28.8219 47.9564 30.2008 51.4937 31.6348C52.2546 31.9429 52.4912 31.7118 52.5609 31.0022C52.6177 30.4282 52.7039 29.8543 52.7901 29.1703ZM28.9904 22.028C28.9977 20.174 28.9519 20.1429 27.1567 20.7517C27.0705 20.7811 26.9843 20.8141 26.8981 20.8471C21.001 23.1227 15.1074 25.402 9.20839 27.6703C6.7934 28.5982 7.1638 28.1764 7.43886 30.9288C7.51954 31.7393 7.79827 31.93 8.6216 31.6018C15.2028 28.9833 21.8023 26.4087 28.4018 23.8379C28.8107 23.6783 28.9977 23.4546 28.9922 23.0365C28.9867 22.701 28.9904 22.3636 28.9904 22.028ZM22.224 51.6827C22.224 51.6681 22.224 51.6534 22.224 51.6405C20.2436 51.6405 18.2632 51.6424 16.2828 51.6387C15.9968 51.6387 15.6099 51.6332 15.8317 52.0421C16.1691 52.6619 16.4699 53.4266 17.4069 53.3386C19.1581 53.1735 20.6984 53.6925 22.1452 54.6607C23.4709 55.5482 24.8279 55.5152 26.1518 54.5891C26.7789 54.1509 27.4391 53.7291 28.1872 53.5824C28.9831 53.4266 29.0344 52.9315 28.9867 52.3062C28.928 51.5507 28.3523 51.6919 27.892 51.6882C26.0014 51.6754 24.1127 51.6827 22.224 51.6827ZM37.8967 51.6479C37.8967 51.6607 37.8967 51.6717 37.8967 51.6846C35.8851 51.6846 33.8736 51.6846 31.8638 51.6846C31.4402 51.6846 31.046 51.7359 31.035 52.2915C31.0258 52.8013 30.9084 53.3624 31.6419 53.5201C32.3974 53.6833 33.0851 54.0335 33.6975 54.4846C35.2048 55.5922 36.6828 55.506 38.1791 54.4846C39.3985 53.6521 40.7445 53.179 42.2279 53.3477C43.1484 53.4522 43.6546 53.0085 44.058 52.2988C44.1478 52.1411 44.2982 51.9871 44.2175 51.8019C44.1056 51.5434 43.8581 51.6479 43.6527 51.6479C41.7365 51.6479 39.8166 51.6479 37.8967 51.6479ZM29.9733 9.34967C29.9733 9.346 29.9733 9.34234 29.9733 9.3405C30.6132 9.3405 31.255 9.346 31.895 9.33867C32.3772 9.33317 32.6321 9.13146 32.5625 8.59968C32.3919 7.29959 32.2342 5.99765 32.0894 4.69572C32.0398 4.24646 31.8088 4.04292 31.3742 4.04109C30.4885 4.03925 29.6047 4.04475 28.719 4.03559C28.1927 4.03009 27.9562 4.26663 27.9103 4.79657C27.8333 5.67675 27.6628 6.5496 27.5986 7.42978C27.4556 9.42852 27.0027 9.34967 29.3315 9.34967C29.546 9.35151 29.7605 9.34967 29.9733 9.34967Z" fill="#00BBF0"/>
<path d="M31.0053 14.0201C31.086 14.7573 30.6863 14.992 30.0243 15.003C29.3018 15.014 28.9736 14.7206 28.9883 13.9651C29.0011 13.2555 29.3073 12.9933 29.9913 12.9878C30.723 12.9841 31.0915 13.2647 31.0053 14.0201Z" fill="#00BBF0"/>
<path d="M25.354 14.0109C25.2972 13.3343 25.5649 12.9896 26.2801 12.9896C26.9365 12.9896 27.3143 13.2096 27.3179 13.9193C27.3216 14.6216 27.0154 14.9846 26.2947 14.9956C25.6034 15.0085 25.2825 14.6967 25.354 14.0109Z" fill="#00BBF0"/>
<path d="M34.6624 14.0348C34.732 14.7371 34.3745 15.0121 33.6997 14.9975C32.968 14.981 32.6893 14.5904 32.6985 13.8991C32.7076 13.1766 33.1165 12.9914 33.7602 12.9932C34.49 12.9914 34.7174 13.3728 34.6624 14.0348Z" fill="#00BBF0"/>
<path d="M19.8711 14.1192C20.0324 14.9205 19.5318 14.981 18.9579 15.0067C18.2537 15.0397 17.9768 14.7353 17.9897 14.0293C18.0025 13.3784 18.1694 13.0079 18.912 12.9823C19.7996 12.9529 19.9352 13.4425 19.8711 14.1192Z" fill="#00BBF0"/>
<path d="M40.1573 14.044C40.051 13.2518 40.3939 12.9712 41.1439 12.9877C41.9984 13.0061 42.0057 13.5415 42.0167 14.165C42.0314 14.9755 41.5179 15.0122 40.922 15.0048C40.2343 14.9957 39.9758 14.6748 40.1573 14.044Z" fill="#00BBF0"/>
<path d="M19.8602 17.7591C20.0142 18.4815 19.6988 18.7163 18.9837 18.7163C18.219 18.7163 17.9861 18.3899 17.9898 17.6729C17.9935 16.9834 18.2502 16.6845 18.9525 16.6845C19.7153 16.6863 20.0087 17.0182 19.8602 17.7591Z" fill="#00BBF0"/>
<path d="M40.1539 17.7187C39.9943 16.9266 40.3886 16.69 41.1074 16.6882C41.8445 16.6863 42.0132 17.0659 42.0243 17.7187C42.0371 18.4779 41.7089 18.7089 40.9864 18.7181C40.218 18.7273 40.0255 18.3789 40.1539 17.7187Z" fill="#00BBF0"/>
<path d="M21.819 14.0678C21.7291 13.3178 21.9914 12.9602 22.7688 12.9896C23.6087 13.0208 23.5115 13.5855 23.5408 14.132C23.5775 14.8233 23.2309 15.0287 22.6001 15.0048C21.9363 14.9828 21.6319 14.7151 21.819 14.0678Z" fill="#00BBF0"/>
<path d="M38.2031 14.1008C38.3572 14.8104 37.9813 14.9736 37.4036 15.0085C36.6757 15.0525 36.4538 14.7114 36.4684 14.0311C36.4813 13.4077 36.5766 12.9841 37.3505 12.9878C38.2086 12.9878 38.249 13.5122 38.2031 14.1008Z" fill="#00BBF0"/>
<path d="M23.5277 17.7444C23.6176 18.41 23.3462 18.7016 22.6164 18.7181C21.7765 18.7364 21.8169 18.2597 21.7857 17.6637C21.7454 16.9266 22.0553 16.69 22.7411 16.69C23.4874 16.69 23.5736 17.1411 23.5277 17.7444Z" fill="#00BBF0"/>
<path d="M38.1919 17.7187C38.3203 18.3954 38.1241 18.7126 37.3998 18.7163C36.6571 18.7199 36.4609 18.3917 36.4664 17.7169C36.4719 17.0732 36.5966 16.6588 37.3686 16.6882C38.1149 16.7157 38.346 17.0732 38.1919 17.7187Z" fill="#00BBF0"/>
</svg>
