<svg width="60" height="60" viewBox="0 0 60 60" fill="none" xmlns="http://www.w3.org/2000/svg">
<path d="M9.32378 30.6585C9.8777 29.7322 10.1041 28.7235 10.4522 27.7766C11.3561 25.3195 12.2094 22.8437 13.0777 20.3753C13.9909 17.776 15.3701 16.7805 18.0986 16.7805C25.9565 16.7786 33.8144 16.7786 41.6703 16.7805C44.337 16.7805 45.7349 17.7891 46.6313 20.3304C47.741 23.4744 48.8564 26.6183 49.9736 29.7603C50.0746 30.0447 50.2168 30.3161 50.3797 30.6791C50.84 30.2206 50.8045 29.6985 50.9223 29.2475C51.1076 28.5401 51.51 28.1939 52.2548 28.2052C53.4393 28.2239 54.6239 28.2258 55.8085 28.2052C56.7311 28.1883 57.1053 28.6543 57.0978 29.5301C57.0885 30.4021 57.1166 31.2761 57.0885 32.1481C57.0548 33.2167 56.7666 33.5198 55.6662 33.576C54.7324 33.6228 53.7968 33.5891 52.8611 33.604C52.6215 33.6078 52.324 33.5442 52.1949 33.8211C52.0676 34.0943 52.3128 34.2796 52.4438 34.4798C52.6515 34.7905 52.8386 35.1273 53.0969 35.3912C55.0188 37.3636 55.582 39.7384 55.4099 42.4294C55.2284 45.257 55.5633 48.0996 55.2284 50.9291C55.1329 51.7338 54.8335 52.4599 54.2515 53.0007C53.6695 53.5415 53.503 54.1516 53.5067 54.9151C53.5235 57.8475 53.3607 57.9935 50.4695 57.9935C49.3167 57.9935 48.1619 57.9972 47.0091 57.9916C45.4952 57.9841 44.9078 57.4471 44.7805 55.9687C44.6626 54.582 44.6626 54.5801 43.2629 54.5801C34.314 54.5801 25.3652 54.5801 16.4162 54.5801C15.0483 54.5801 15.0483 54.582 14.9472 55.9182C14.8349 57.4209 14.2492 57.9823 12.7633 57.9898C11.2363 57.9972 9.7074 57.9991 8.18037 57.9879C6.75065 57.9767 6.23416 57.4452 6.20796 55.9911C6.20047 55.6169 6.17989 55.2407 6.2117 54.8683C6.26971 54.1366 6.06199 53.5528 5.5062 53.0344C4.79134 52.3682 4.50502 51.4774 4.44701 50.5099C4.23367 46.9281 4.31601 43.3445 4.4021 39.7627C4.43204 38.5388 4.98035 37.4927 5.75509 36.5477C6.30714 35.874 6.78621 35.1404 7.31019 34.4424C7.72376 33.8904 7.64329 33.5984 6.91159 33.5966C6.00772 33.5947 5.10199 33.6134 4.19999 33.5816C2.94244 33.5367 2.65799 33.241 2.63179 32.0059C2.61495 31.2274 2.61682 30.4471 2.62992 29.6667C2.65051 28.4821 2.90501 28.2201 4.05402 28.207C5.14503 28.1939 6.2379 28.2314 7.32703 28.1958C8.18973 28.1677 8.65944 28.527 8.83348 29.3785C8.91956 29.7846 8.90646 30.2524 9.32378 30.6585ZM25.3126 33.5947C20.6042 33.5947 15.896 33.6115 11.1877 33.5778C10.3774 33.5722 9.84401 33.8342 9.39489 34.4911C8.56962 35.7 7.70879 36.8883 6.82364 38.056C6.26971 38.7877 6.01334 39.5868 6.01334 40.4888C6.01334 43.0451 6.03767 45.6032 6.00024 48.1595C5.98714 49.0353 6.26784 49.3721 7.18107 49.3628C11.4216 49.3272 15.6621 49.3497 19.9026 49.3459C21.0667 49.3441 21.1359 49.2767 21.1415 48.1408C21.149 46.4266 21.1247 44.7106 21.1509 42.9964C21.1846 40.8556 22.9848 38.9299 25.1051 38.8906C28.2845 38.8308 31.4656 38.8289 34.6451 38.8925C36.7485 38.9337 38.5639 40.9024 38.5807 43.0076C38.5938 44.7536 38.6086 46.4996 38.5749 48.2456C38.56 49.0315 38.8184 49.3647 39.6493 49.359C43.9833 49.331 48.3174 49.3366 52.6515 49.3572C53.3982 49.3609 53.7294 49.1176 53.7219 48.3354C53.6957 45.6537 53.7182 42.9721 53.7069 40.2904C53.7032 39.525 53.4711 38.8251 53.0089 38.1982C52.1032 36.9688 51.19 35.743 50.3273 34.4836C49.8763 33.8249 49.339 33.5348 48.5287 33.5797C47.4414 33.6396 46.3467 33.6003 45.2557 33.5909C44.8833 33.5872 44.5092 33.5554 44.1387 33.5161C43.6016 33.4581 43.1167 33.2709 43.1373 32.6347C43.1579 31.9947 43.6914 31.8263 44.2004 31.8038C45.3831 31.7551 46.5696 31.7701 47.7523 31.7551C48.7909 31.742 48.8582 31.6597 48.5158 30.6754C47.3649 27.3799 46.2159 24.0844 45.0388 20.7983C44.3464 18.8633 43.7569 18.474 41.719 18.474C33.9248 18.4722 26.1287 18.474 18.3344 18.474C15.8698 18.474 15.3889 18.8146 14.5786 21.1108C13.4801 24.2267 12.3797 27.3406 11.2793 30.4564C10.8433 31.6934 10.8864 31.757 12.215 31.757C21.1322 31.757 30.0492 31.757 38.9681 31.7589C39.4977 31.7589 40.0273 31.742 40.5475 31.888C40.9555 32.0022 41.2025 32.2305 41.2025 32.6759C41.2025 33.1194 40.9761 33.3888 40.5494 33.4525C40.0572 33.5236 39.5594 33.5909 39.0654 33.5909C34.4787 33.5984 29.8956 33.5928 25.3126 33.5947ZM29.9594 51.0376C22.5993 51.0376 15.2391 51.0376 7.87908 51.0376C7.59838 51.0376 7.31768 51.0376 7.03697 51.0433C6.34831 51.0545 6.30153 51.3895 6.64212 51.876C7.1792 52.6395 7.97265 52.8604 8.85406 52.8604C22.8576 52.8604 36.8591 52.8604 50.8625 52.8604C51.4332 52.8604 51.9928 52.7855 52.47 52.4561C52.8798 52.1736 53.3963 51.8311 53.226 51.2903C53.0838 50.8393 52.5111 51.047 52.1312 51.047C44.7412 51.0339 37.3494 51.0376 29.9594 51.0376ZM29.907 47.6056C27.8241 47.6056 25.7394 47.628 23.6566 47.5925C23.0409 47.5812 22.8108 47.7871 22.8126 48.3841C22.8145 48.9492 22.9043 49.3516 23.6136 49.3497C27.7811 49.3366 31.9467 49.3366 36.1143 49.3497C36.8254 49.3516 36.9077 48.9417 36.9115 48.3803C36.9152 47.7777 36.6738 47.5812 36.0637 47.5925C34.0127 47.628 31.9598 47.6056 29.907 47.6056ZM29.8714 45.7997C31.8625 45.7997 33.8555 45.7885 35.8467 45.8053C36.4811 45.8109 36.9339 45.7342 36.919 44.9164C36.904 44.1492 36.4698 44.0818 35.8785 44.0837C31.8644 44.0912 27.8485 44.093 23.8344 44.0837C23.2318 44.0818 22.8143 44.1754 22.8106 44.9314C22.805 45.6687 23.1774 45.8109 23.8043 45.8053C25.8253 45.7866 27.8485 45.7978 29.8714 45.7997ZM29.8321 42.3957C31.7933 42.3957 33.7545 42.3994 35.7157 42.392C36.0151 42.3901 36.4098 42.478 36.5408 42.1244C36.6586 41.8044 36.3688 41.548 36.1723 41.3141C35.7437 40.8032 35.158 40.5861 34.5143 40.5842C31.4022 40.573 28.2882 40.5711 25.1762 40.588C24.4969 40.5917 23.8943 40.8481 23.4695 41.4095C23.3048 41.6266 23.0559 41.8642 23.1925 42.1543C23.3329 42.45 23.6735 42.392 23.9486 42.3938C25.9097 42.3976 27.8709 42.3957 29.8321 42.3957ZM10.4878 56.4197C10.4878 56.4178 10.4878 56.4178 10.4878 56.4159C11.139 56.4159 11.7921 56.4085 12.4433 56.4178C13.0497 56.4253 13.2611 56.0959 13.2574 55.5364C13.2555 54.96 13.0871 54.5726 12.4134 54.5801C11.2026 54.5932 9.99185 54.5988 8.78108 54.5764C8.07371 54.5633 7.88096 54.9245 7.88096 55.5645C7.88096 56.2288 8.21219 56.4384 8.81102 56.4216C9.36869 56.4085 9.92822 56.4197 10.4878 56.4197ZM49.092 56.4197C49.7133 56.4197 50.3347 56.4066 50.956 56.4234C51.5848 56.4384 51.8524 56.1614 51.8449 55.527C51.8374 54.9357 51.6653 54.5745 50.9991 54.582C49.7883 54.597 48.5775 54.6007 47.3668 54.5783C46.65 54.5652 46.4648 54.9563 46.4666 55.5776C46.4685 56.2344 46.8201 56.4421 47.4171 56.4234C47.9748 56.4066 48.5343 56.4197 49.092 56.4197ZM5.94035 31.7514C5.94035 31.7477 5.94035 31.7458 5.94035 31.742C6.31276 31.742 6.68329 31.7514 7.05569 31.7383C7.28212 31.7308 7.47674 31.6578 7.55347 31.4033C7.73873 30.7914 7.13615 29.9212 6.48866 29.8988C6.02457 29.8819 5.56047 29.9044 5.0945 29.8969C4.39835 29.8875 4.3104 30.331 4.30479 30.885C4.2973 31.4501 4.49192 31.7776 5.10573 31.7514C5.38269 31.742 5.66152 31.7514 5.94035 31.7514ZM53.7294 31.7551C53.9147 31.7551 54.1018 31.7477 54.2871 31.757C54.9327 31.7888 55.4417 31.7346 55.4342 30.8513C55.4267 30.0241 55.0113 29.8482 54.3189 29.8913C53.9802 29.9119 53.6377 29.8875 53.2971 29.8988C52.5748 29.9231 52.0919 30.4826 52.1724 31.2555C52.2491 31.9965 52.8629 31.6747 53.2653 31.7514C53.415 31.7795 53.5741 31.7551 53.7294 31.7551Z" fill="#00BBF0"/>
<path d="M29.9149 12.2779C29.3759 12.261 29.1757 11.9242 29.0765 11.447C28.5694 8.99551 28.0267 8.45656 25.6295 7.97749C25.1354 7.87831 24.72 7.67246 24.7555 7.07737C24.7874 6.5459 25.1523 6.37561 25.6388 6.30262C27.8227 5.97701 28.676 5.14799 29.0559 2.99779C29.1551 2.43826 29.3086 1.9124 29.9879 1.92738C30.6447 1.94235 30.8262 2.43077 30.8974 3.01651C31.1238 4.87852 32.2878 6.04812 34.1591 6.28765C34.7037 6.35689 35.1678 6.47666 35.179 7.12602C35.1903 7.78848 34.6887 7.91386 34.1685 7.98685C32.1062 8.28065 31.1855 9.2051 30.8824 11.2786C30.7682 12.0402 30.5044 12.3116 29.9149 12.2779ZM31.1912 7.2514C31.2136 6.91082 30.233 5.788 29.9897 5.85911C29.3797 6.03689 29.1252 6.61701 28.8052 7.09047C28.6723 7.28883 29.7427 8.46779 29.986 8.37422C30.553 8.16276 30.845 7.62942 31.1912 7.2514Z" fill="#00BBF0"/>
<path d="M10.4934 17.6C10.4916 18.0791 10.2539 18.401 9.73366 18.4571C8.13365 18.6293 7.28966 19.5481 7.08194 21.1107C7.01832 21.5936 6.79001 21.9529 6.25293 21.9472C5.73269 21.9435 5.47631 21.6123 5.40333 21.122C5.16941 19.5387 4.34227 18.5731 2.66928 18.444C2.21454 18.4084 1.90764 18.1034 1.92822 17.6318C1.95068 17.1228 2.31372 16.8459 2.79279 16.8084C3.43841 16.7579 4.00917 16.5651 4.50134 16.1403C5.07771 15.6426 5.33222 14.9876 5.41456 14.2521C5.47257 13.7357 5.66906 13.3221 6.25854 13.3277C6.80311 13.3333 7.00709 13.7581 7.05574 14.211C7.23165 15.8203 8.10558 16.6774 9.72056 16.7991C10.1753 16.8346 10.4859 17.0592 10.4934 17.6Z" fill="#00BBF0"/>
<path d="M57.9999 17.6394C57.9662 18.1503 57.678 18.3842 57.1765 18.474C55.5559 18.7622 54.8523 19.4434 54.5248 21.0378C54.4312 21.4944 54.3376 21.9267 53.7762 21.9417C53.2017 21.9567 52.951 21.5674 52.878 21.0547C52.6553 19.4808 51.7701 18.6087 50.1814 18.4534C49.7154 18.4085 49.4291 18.1316 49.4253 17.6581C49.4216 17.1397 49.7341 16.8403 50.2338 16.8048C51.8207 16.6962 52.6515 15.826 52.8724 14.2896C52.9416 13.805 53.1063 13.3427 53.7107 13.3446C54.3171 13.3465 54.4331 13.7919 54.5192 14.2934C54.7886 15.8803 55.4567 16.5241 57.0867 16.7823C57.5957 16.8646 57.9887 17.0293 57.9999 17.6394Z" fill="#00BBF0"/>
<path d="M29.7686 30.8513C24.656 30.8513 19.5454 30.8513 14.4329 30.8513C14.1222 30.8513 13.806 30.8718 13.4991 30.8288C12.7692 30.7296 12.4268 30.3235 12.6832 29.59C13.7367 26.5602 14.8034 23.5324 15.8757 20.5082C16.0797 19.9337 16.5138 19.5837 17.1164 19.4995C17.5468 19.4396 17.9847 19.4191 18.4189 19.4191C26.0558 19.4153 33.691 19.4153 41.328 19.4172C43.2892 19.4172 43.495 19.5538 44.1631 21.4121C45.0913 23.9908 45.9989 26.5789 46.9178 29.1614C47.3669 30.4227 47.0918 30.8456 45.7575 30.8475C40.4279 30.855 35.0982 30.8513 29.7686 30.8513ZM29.8678 29.1333C34.5743 29.1333 39.2807 29.1352 43.9872 29.1315C45.125 29.1296 45.168 29.0809 44.805 28.048C44.0826 25.9913 43.3229 23.9478 42.6118 21.8856C42.4153 21.3148 42.0803 21.1239 41.502 21.1258C33.7415 21.137 25.9791 21.137 18.2186 21.1258C17.6348 21.1258 17.3073 21.3279 17.1108 21.8912C16.4334 23.8318 15.7091 25.7574 15.0242 27.6961C14.5208 29.124 14.5377 29.1315 16.0273 29.1315C20.6401 29.1333 25.2549 29.1333 29.8678 29.1333Z" fill="#00BBF0"/>
<path d="M14.0418 47.4969C12.4811 47.5605 11.0944 47.0815 9.88364 46.114C8.51006 45.0174 8.44456 43.3762 9.6965 42.1411C11.7307 40.1331 16.1209 40.0489 18.228 41.9783C19.5717 43.2096 19.5043 45.1652 18.0671 46.288C16.8863 47.2106 15.522 47.5531 14.0418 47.4969ZM14.0287 45.7846C15.116 45.9119 16.1134 45.6068 16.9799 44.9313C17.7527 44.3287 17.6985 43.5783 16.8863 43.0225C15.4547 42.0438 12.5934 42.0456 11.1824 43.0262C10.3122 43.6326 10.2748 44.3381 11.1094 44.9874C11.959 45.648 12.9414 45.8857 14.0287 45.7846Z" fill="#00BBF0"/>
<path d="M45.6318 47.497C44.1852 47.5456 42.8528 47.205 41.6925 46.3143C40.2104 45.1765 40.1449 43.1928 41.5391 41.9446C43.6724 40.0359 48.0552 40.1556 50.0688 42.1786C51.272 43.3875 51.2065 45.0081 49.876 46.0878C48.6446 47.0871 47.2262 47.5718 45.6318 47.497ZM45.6673 45.7847C46.7826 45.8876 47.795 45.6499 48.6615 44.9501C49.4437 44.3194 49.3969 43.6251 48.5717 43.0469C47.1363 42.042 44.3443 42.0214 42.8715 43.0057C42.0088 43.5821 41.9639 44.3475 42.7929 44.9688C43.6444 45.6069 44.61 45.9101 45.6673 45.7847Z" fill="#00BBF0"/>
<path d="M14.0517 39.6111C13.2133 39.6111 12.3749 39.6111 11.5366 39.6111C11.0014 39.6111 10.5915 39.3903 10.5784 38.8232C10.5653 38.2618 10.9939 37.968 11.4935 37.9587C13.2002 37.9269 14.9069 37.9306 16.6136 37.9605C17.1001 37.9699 17.422 38.2768 17.4089 38.8101C17.3958 39.3472 17.0664 39.5905 16.5649 39.5999C15.7265 39.6148 14.8882 39.6036 14.0498 39.6036C14.0517 39.6073 14.0517 39.6092 14.0517 39.6111Z" fill="#00BBF0"/>
<path d="M45.7292 39.6073C44.8908 39.6073 44.0524 39.6148 43.2141 39.6054C42.7256 39.5998 42.3589 39.407 42.3214 38.8625C42.2821 38.2824 42.6227 37.9642 43.1542 37.9549C44.8291 37.9249 46.5058 37.9212 48.1825 37.953C48.7215 37.9624 49.1818 38.2449 49.1463 38.8625C49.1145 39.4314 48.6766 39.6148 48.1507 39.6129C47.3442 39.611 46.5357 39.6129 45.7292 39.6129C45.7292 39.611 45.7292 39.6092 45.7292 39.6073Z" fill="#00BBF0"/>
</svg>
