<svg width="60" height="60" viewBox="0 0 60 60" fill="none" xmlns="http://www.w3.org/2000/svg">
<path d="M35.9076 20.4798C35.9076 19.5042 35.8906 18.5305 35.9132 17.5549C35.9378 16.5113 36.2208 16.1962 37.2682 16.1566C38.5249 16.1075 39.7857 16.0962 41.0406 16.1452C41.8312 16.1754 42.4349 15.9301 42.9652 15.364C43.5219 14.7677 44.1653 14.245 44.69 13.6222C45.5618 12.5862 46.6225 12.1673 47.9529 12.3862C48.1944 12.4258 48.5112 12.5277 48.6509 12.2768C48.8396 11.939 48.4641 11.7842 48.2848 11.6069C44.3503 7.70254 39.6234 5.31919 34.1981 4.27942C33.6452 4.17374 33.2733 4.26243 33.2148 4.92102C33.1714 5.42298 32.8298 5.68528 32.3656 5.8136C32.0618 5.89663 31.7674 6.02117 31.4579 6.07024C29.7784 6.3382 28.2518 6.95338 26.9422 8.04599C26.1458 8.71023 25.3778 8.78194 24.4475 8.24601C23.2511 7.55724 21.9717 7.01188 20.7413 6.37971C20.13 6.06646 19.5695 6.08156 18.943 6.36462C14.2537 8.4951 10.5739 11.7541 7.86411 16.132C7.41499 16.8585 7.36404 17.4473 7.87166 18.1927C8.73593 19.4646 9.46809 20.827 10.2833 22.1329C10.6418 22.7085 10.6381 23.2671 10.121 23.6501C8.25849 25.0315 7.3697 26.7751 7.7056 29.1396C7.81694 29.9303 7.27911 30.419 6.41861 30.4096C6.13555 30.4058 5.85249 30.4152 5.56943 30.4152C3.9258 30.419 3.8711 30.4511 4.00319 32.1268C4.12585 33.6629 4.39193 35.1801 4.84293 36.6595C5.01654 37.2313 5.00898 37.6804 4.31643 37.9389C3.59746 38.2069 3.22193 38.0635 3.01813 37.2879C2.1916 34.1365 1.78779 30.9681 2.04631 27.6903C2.41429 23.0312 3.97111 18.8041 6.39976 14.8771C10.4777 8.28187 16.4748 4.25866 23.9608 2.69806C34.8529 0.42793 44.0483 3.72651 51.2682 12.1296C56.067 17.7134 58.0694 24.3936 57.7373 31.7135C57.5448 35.9538 56.1672 39.8996 54.1047 43.6077C50.3777 50.3086 44.7749 54.6337 37.4248 56.6718C31.9655 58.1852 26.497 58.1172 21.0849 56.351C20.4753 56.1528 19.962 56.1717 19.3695 56.4302C16.6465 57.6191 13.831 58.5343 10.8438 58.6739C7.67163 58.8211 4.82216 58.1003 3.07286 55.098C2.48033 54.0808 2.16707 52.9769 2.08027 51.7918C1.75758 47.3554 3.2861 43.3756 5.1222 39.4844C7.47536 34.5026 10.6985 30.0907 14.182 25.8523C14.6537 25.2787 15.0576 25.0409 15.7218 25.6372C16.354 26.2052 16.1445 26.6034 15.6992 27.1318C11.8496 31.6947 8.45665 36.5595 6.10538 42.0773C4.9203 44.8607 3.91448 47.7007 3.96732 50.8011C4.02959 54.4715 6.3639 56.8001 10.0229 56.834C12.4289 56.8567 14.6632 56.1207 16.8918 55.3433C17.071 55.281 17.2975 55.2112 17.3183 55.0149C17.3541 54.6866 17.0145 54.6451 16.8163 54.5375C13.8744 52.9656 11.3061 50.9276 9.06994 48.4555C8.34909 47.6592 7.72258 46.7968 7.08665 45.9401C6.74698 45.4834 6.48845 45.055 7.15458 44.6003C7.75278 44.1926 8.17925 44.1341 8.64158 44.8022C9.46434 45.991 10.3493 47.1346 11.3929 48.1479C16.471 53.0845 22.5246 55.6546 29.6256 55.7509C36.5605 55.8452 42.5842 53.4996 47.6641 48.8499C50.9495 45.8419 53.0949 42.0395 54.5479 37.8446C55.4726 35.1744 55.8519 32.4193 55.8878 29.6019C55.8972 28.8433 55.6596 28.4621 54.8633 28.5565C54.7387 28.5716 54.6123 28.5584 54.4859 28.5584C50.8495 28.5338 51.7534 28.9075 49.8852 25.7957C49.2549 24.7446 48.6547 23.6747 48.081 22.5915C47.8225 22.1065 47.4658 21.9291 46.9412 21.9386C46.0618 21.9556 45.1749 22.0065 44.3012 21.9235C43.3445 21.8329 42.7104 22.2009 42.3443 23.035C41.7235 24.4484 40.6516 24.9428 39.1609 24.7654C38.54 24.6918 37.9041 24.7635 37.2757 24.7484C36.2076 24.722 35.9265 24.4521 35.9076 23.401C35.8925 22.4311 35.9076 21.4555 35.9076 20.4798ZM37.7946 20.493C37.7946 20.7761 37.7946 21.0592 37.7946 21.3423C37.7965 22.8538 37.9777 23.0067 39.493 22.8651C39.9421 22.8236 40.261 22.6255 40.5026 22.2669C40.8196 21.7989 41.1706 21.3498 41.448 20.8592C41.848 20.1496 42.416 19.859 43.2256 19.8778C44.6711 19.9118 46.1166 19.9194 47.5621 19.8759C48.4263 19.8514 48.983 20.2043 49.385 20.9422C50.1077 22.265 50.9757 23.5237 51.5702 24.8994C52.157 26.2581 53.0441 26.743 54.4349 26.5071C54.5274 26.492 54.6236 26.4996 54.718 26.5015C55.3369 26.5222 55.582 26.226 55.4651 25.6221C54.7291 21.8178 53.4367 18.238 51.1835 15.0489C50.9627 14.7375 50.7361 14.4469 50.2964 14.4318C48.2923 14.3582 46.2677 14.1166 44.9336 16.1905C43.8089 17.9379 42.1122 18.3059 40.1082 18.204C37.4889 18.0663 37.8192 17.9266 37.7946 20.493ZM4.00508 26.994C3.96545 28.064 4.0315 28.2281 4.47684 28.3508C5.25997 28.5659 5.64305 28.2678 5.68079 27.428C5.7223 26.4788 5.52226 25.5353 6.36766 24.7126C8.49626 22.6406 8.46042 22.6047 6.79038 20.0967C6.75641 20.0439 6.72056 19.9911 6.68848 19.9382C6.3639 19.3891 6.13179 19.4646 5.88648 20.0175C4.86747 22.3066 4.3089 24.7144 4.00508 26.994ZM30.7616 4.26243C30.2917 3.85106 29.969 3.86238 29.6652 3.88502C27.914 4.01146 26.1553 4.09637 24.4531 4.5587C23.9663 4.6908 23.1322 4.58135 23.0699 5.1135C22.9963 5.75132 23.904 5.69471 24.3286 6.02872C24.5437 6.19856 24.8343 6.27404 25.0966 6.37783C25.4042 6.4986 25.7401 6.52313 25.9949 6.30612C27.3139 5.18521 28.8764 4.60399 30.7616 4.26243Z" fill="#00BBF0"/>
<path d="M33.2295 10.3048C33.0201 11.8352 32.5539 13.4166 31.3613 14.6903C30.6952 15.4018 30.0121 16.0981 29.3025 16.7642C28.8119 17.2247 28.6666 17.6926 28.8685 18.3588C29.5969 20.7629 30.2706 23.1841 30.9726 25.5976C31.3821 27.0053 31.2972 27.2903 30.1895 28.2036C29.8743 28.4622 29.5856 28.7547 29.2724 29.0151C28.3892 29.751 27.757 29.6265 27.2891 28.5773C26.4701 26.7412 25.6983 24.8843 24.8736 23.052C24.7132 22.6934 24.6868 21.9858 24.1263 22.1575C23.5036 22.3481 22.9601 22.8614 23.0885 23.6502C23.2187 24.454 23.4281 25.2466 23.6282 26.0373C23.715 26.3807 23.8282 26.7242 23.598 27.0337C22.9564 27.8923 22.2166 28.6735 21.3429 29.2868C20.6769 29.7529 20.2277 29.2491 19.8937 28.7131C19.1955 27.5941 18.503 26.4694 17.8482 25.324C17.5236 24.7579 17.1009 24.3427 16.5385 24.0181C15.4497 23.3897 14.3873 22.7198 13.3173 22.0594C12.2964 21.4272 12.2191 20.8157 13.04 19.9382C14.8327 18.021 14.8326 18.021 17.4557 18.6475C17.6991 18.706 17.9482 18.7532 18.1973 18.7815C18.6634 18.8362 19.805 18.1172 19.8126 17.7209C19.8258 17.1152 19.2257 17.1397 18.8709 16.9756C17.1311 16.1717 15.3742 15.4074 13.6155 14.6432C12.1247 13.994 11.9851 13.4392 13.106 12.3353C15.5044 9.97269 14.5703 10.3293 17.6915 11.2087C19.6258 11.7522 21.543 12.3636 23.4527 12.9882C24.1792 13.226 24.717 13.0769 25.2227 12.5259C25.7964 11.9013 26.4229 11.3257 27.0154 10.72C28.3118 9.39525 29.9517 8.81781 31.735 8.60646C32.7691 8.48569 33.2616 9.03671 33.2295 10.3048ZM16.1479 20.2723C15.6271 20.1836 15.3799 20.2288 15.261 20.5006C15.1289 20.8044 15.3478 21.0007 15.5686 21.1045C17.8935 22.1971 19.6692 23.837 20.7466 26.1996C20.8353 26.3939 20.9919 26.6223 21.2505 26.526C21.5279 26.4222 21.5656 26.1392 21.5147 25.8844C21.3882 25.2693 21.2637 24.6522 21.0882 24.0502C20.7919 23.0331 20.9202 22.2198 21.76 21.4272C24.3396 18.9891 26.8437 16.4698 29.378 13.9846C30.0404 13.3354 30.5574 12.5957 30.8443 11.7107C30.9254 11.4578 31.1896 11.1691 30.9065 10.9351C30.6612 10.7313 30.365 10.9389 30.1045 11.0276C29.1233 11.3653 28.3854 12.056 27.6684 12.7636C25.1623 15.2357 22.6526 17.704 20.1825 20.2138C19.5258 20.88 18.8653 21.0932 17.9878 20.7969C17.3066 20.5647 16.6008 20.3987 16.1479 20.2723ZM15.8403 12.6901C15.5535 12.6561 15.3478 12.7014 15.3044 12.9127C15.2384 13.2354 15.5252 13.3298 15.7479 13.4298C17.2368 14.094 18.7294 14.7507 20.2221 15.4074C20.5372 15.5452 20.8523 15.6999 21.1825 15.7924C21.8808 15.9905 22.3223 15.498 22.4903 14.9998C22.6695 14.4695 22.0053 14.5488 21.7071 14.4488C20.6391 14.0846 19.5503 13.7864 18.469 13.4656C17.5689 13.1977 16.6669 12.9335 15.8403 12.6901ZM26.8513 19.4533C26.4267 19.4061 25.8492 20.227 26.0417 20.6912C26.7946 22.5123 27.5816 24.3201 28.3609 26.1298C28.4458 26.3279 28.5534 26.5864 28.8195 26.5015C29.1308 26.4034 29.0893 26.0958 29.0195 25.8599C28.4251 23.8502 27.8174 21.8442 27.2117 19.8382C27.1551 19.6571 27.0777 19.4816 26.8513 19.4533Z" fill="#00BBF0"/>
<path d="M37.7601 43.3831C37.7582 41.8432 37.745 40.3034 37.7658 38.7635C37.7733 38.1672 37.5809 37.9257 36.943 37.954C33.7709 38.1031 33.9709 37.7275 33.9822 35.0139C33.9879 33.3477 33.9728 31.6833 33.9898 30.017C34.003 28.8244 34.2898 28.447 35.4768 28.4243C38.3357 28.3734 41.1965 28.3998 44.0553 28.4149C44.7781 28.4187 45.2763 28.781 45.5952 29.4566C46.1575 30.6492 46.8274 31.7965 47.3426 33.008C47.6993 33.8459 48.2295 34.1365 49.0938 34.0516C49.6222 33.9987 50.1619 34.027 50.6959 34.0497C51.9716 34.1044 52.3999 34.863 51.7168 35.9273C50.7846 37.3803 49.8165 38.8126 48.8239 40.226C48.4069 40.8204 48.1805 41.4035 48.2805 42.1508C48.5201 43.9303 47.9389 45.2871 46.6614 46.6892C44.8272 48.7046 42.8835 49.5934 40.1623 49.3367C37.779 49.1103 37.762 49.2895 37.762 46.8741C37.762 45.7079 37.762 44.5455 37.7601 43.3831ZM39.8132 42.0772C39.8151 42.0772 39.8189 42.0772 39.8208 42.0772C39.8208 43.1132 39.8208 44.1511 39.8208 45.1871C39.8208 47.4761 39.8208 47.4761 42.1494 47.3968C43.1364 47.3629 46.116 44.7059 46.2575 43.7303C46.2745 43.6057 46.2915 43.4755 46.2708 43.3547C45.9424 41.2809 46.6633 39.5448 47.9653 37.9842C48.1654 37.7445 48.3182 37.4652 48.488 37.201C49.1183 36.2217 49.0881 36.1349 47.9559 36.1047C47.086 36.082 46.4859 35.7763 46.1141 34.9328C45.5574 33.6685 44.897 32.4513 44.3026 31.204C44.0648 30.7039 43.7515 30.4095 43.1552 30.4152C41.0813 30.4341 39.0075 30.4322 36.9336 30.4171C36.2788 30.4114 36.0391 30.7152 36.0561 31.3398C36.0769 32.1871 36.0561 33.0363 36.0599 33.8855C36.0712 36.15 35.8523 35.9273 38.0545 35.9443C39.4717 35.9537 39.7661 36.216 39.8038 37.6502C39.8415 39.1221 39.8132 40.5996 39.8132 42.0772Z" fill="#00BBF0"/>
<path d="M19.851 46.6344C19.851 45.3456 19.8284 44.0567 19.8605 42.7697C19.8774 42.0527 19.6246 41.7262 18.8773 41.7621C18.0942 41.7998 17.3054 41.7507 16.5204 41.7715C15.6655 41.796 15.1862 41.3922 15.1787 40.5562C15.1579 38.5144 15.1711 36.4726 15.1975 34.4308C15.2089 33.5968 15.6353 33.1929 16.5166 33.2231C17.7715 33.2646 19.0302 33.2609 20.2869 33.2231C21.0701 33.2005 21.7381 33.4118 22.1891 34.0459C23.3478 35.6744 24.9046 36.216 26.8464 35.9537C27.5861 35.8537 28.3523 35.9405 29.1071 35.9461C29.8959 35.9537 30.362 36.3273 30.3695 37.1425C30.3827 38.588 30.379 40.0335 30.3714 41.4771C30.3695 41.9489 30.1336 42.298 29.7694 42.5961C28.6995 43.4698 27.6767 44.4058 26.5728 45.2342C25.9255 45.7211 25.5688 46.2646 25.6934 47.0609C25.8783 48.2573 25.4349 49.0782 24.397 49.716C23.4912 50.2727 22.6892 50.9954 21.8362 51.637C21.3777 51.9824 20.8606 52.122 20.3379 51.8408C19.8529 51.5785 19.8623 51.0653 19.8605 50.5897C19.8548 49.2707 19.8586 47.9497 19.8586 46.6307C19.8529 46.6344 19.8529 46.6344 19.851 46.6344ZM21.7645 44.5436C21.7664 44.5436 21.7702 44.5436 21.7721 44.5436C21.7721 45.7381 21.7664 46.9326 21.774 48.1271C21.7777 48.8008 22.0249 48.9857 22.6401 48.5838C23.2987 48.1516 23.7101 47.6214 23.5969 46.7948C23.4251 45.5381 23.9177 44.6662 24.9839 43.9567C25.9991 43.2811 26.8822 42.4112 27.8295 41.6337C28.1352 41.3828 28.3523 41.1035 28.3466 40.6808C28.3372 39.9901 28.339 39.2976 28.3466 38.6069C28.3523 38.1295 28.1352 37.9351 27.6522 37.9559C26.8992 37.9861 26.1368 37.9106 25.3915 37.9879C23.9233 38.1408 22.6835 37.7502 21.8645 36.5009C20.8757 34.9951 19.4113 35.1045 17.9262 35.1592C17.3978 35.1781 17.211 35.4423 17.2148 35.9348C17.2243 36.9727 17.2243 38.0087 17.2167 39.0466C17.211 39.6014 17.4771 39.8467 18.0225 39.8448C18.8716 39.841 19.7189 39.858 20.5681 39.8542C21.3815 39.8505 21.7872 40.2147 21.7721 41.0563C21.7494 42.2168 21.7645 43.3812 21.7645 44.5436Z" fill="#00BBF0"/>
</svg>
