<svg width="50" height="50" viewBox="0 0 50 50" fill="none" xmlns="http://www.w3.org/2000/svg">
<g clip-path="url(#clip0_133_2717)">
<rect width="50" height="50" rx="3.33333" fill="#FFDD00"/>
<path d="M24.1667 30C24.1667 30.4602 24.5398 30.8333 25 30.8333C25.4602 30.8333 25.8333 30.4602 25.8333 30L24.1667 30ZM25.5893 16.9107C25.2638 16.5853 24.7362 16.5853 24.4107 16.9107L19.1074 22.214C18.782 22.5395 18.782 23.0671 19.1074 23.3926C19.4329 23.718 19.9605 23.718 20.286 23.3926L25 18.6785L29.714 23.3926C30.0395 23.718 30.5671 23.718 30.8926 23.3926C31.218 23.0671 31.218 22.5395 30.8926 22.214L25.5893 16.9107ZM25.8333 30L25.8333 17.5L24.1667 17.5L24.1667 30L25.8333 30Z" fill="white"/>
</g>
<defs>
<clipPath id="clip0_133_2717">
<rect width="50" height="50" fill="white"/>
</clipPath>
</defs>
</svg>
